<svg id="visual" viewBox="0 0 900 600" width="900" height="600" xmlns="http://www.w3.org/2000/svg" xmlns:xlink="http://www.w3.org/1999/xlink" version="1.1"><path d="M0 485L8.8 482.3C17.7 479.7 35.3 474.3 53 468.2C70.7 462 88.3 455 106 452.3C123.7 449.7 141.3 451.3 159 450.3C176.7 449.3 194.3 445.7 212 439.3C229.7 433 247.3 424 265 425.2C282.7 426.3 300.3 437.7 318 438.5C335.7 439.3 353.3 429.7 371 423C388.7 416.3 406.3 412.7 423.8 421.8C441.3 431 458.7 453 476.2 458.2C493.7 463.3 511.3 451.7 529 440.8C546.7 430 564.3 420 582 427C599.7 434 617.3 458 635 458.2C652.7 458.3 670.3 434.7 688 428.5C705.7 422.3 723.3 433.7 741 444.3C758.7 455 776.3 465 794 458.7C811.7 452.3 829.3 429.7 847 424.2C864.7 418.7 882.3 430.3 891.2 436.2L900 442L900 601L891.2 601C882.3 601 864.7 601 847 601C829.3 601 811.7 601 794 601C776.3 601 758.7 601 741 601C723.3 601 705.7 601 688 601C670.3 601 652.7 601 635 601C617.3 601 599.7 601 582 601C564.3 601 546.7 601 529 601C511.3 601 493.7 601 476.2 601C458.7 601 441.3 601 423.8 601C406.3 601 388.7 601 371 601C353.3 601 335.7 601 318 601C300.3 601 282.7 601 265 601C247.3 601 229.7 601 212 601C194.3 601 176.7 601 159 601C141.3 601 123.7 601 106 601C88.3 601 70.7 601 53 601C35.3 601 17.7 601 8.8 601L0 601Z" fill="#00FF7F" stroke-linecap="round" stroke-linejoin="miter"></path></svg>